<svg xmlns="http://www.w3.org/2000/svg" viewBox="0 0 149.66 213.2"><defs><style>.cls-1{fill:#ff8f9a;}</style></defs><title>Asset 1</title><g id="Layer_2" data-name="Layer 2"><g id="Layer_2-2" data-name="Layer 2"><path class="cls-1" d="M118.9,35.13A42.29,42.29,0,0,0,88.37,1.74a52.26,52.26,0,0,0-28.15.4c-7.41,2.11-15.1,5.4-17.15,13.49-.51,2-1,5.08-.25,7.07.55,1.36,1.16,2.17,1.7.06C46.43,15.21,57.42,12.47,64,11.13a51.41,51.41,0,0,1,24.07.6C102.29,15.68,114.4,27.28,117,42.14c.34,2,1.05,1.38,1.69.06.91-1.88.59-5.08.25-7.07Z"/><path class="cls-1" d="M98.42,34.94C94.51,50.65,73.81,52.29,63.3,61.82c-9.8,8.89-11.15,25.6-5.17,36.94.67,1.28,1.57-3.27,1.59-3.44.22-2,.33-4.37-.62-6.17C51.61,74.93,70.28,66.68,80.28,61.87c8.82-4.24,17.1-9.8,19.59-19.81.5-2,1-5.07.24-7.06-.54-1.35-1.17-2.18-1.69-.06Z"/><path class="cls-1" d="M29.47,49.45c-8.78-3.93-10.16-15.24-6.22-23.05,4.58-9.07,14.27-13.21,23.82-14.71,2.18-.34-1.07-1.74-1.52-1.9a14.49,14.49,0,0,0-6.82-.64c-10.63,1.66-21.53,6.56-26,17A18,18,0,0,0,22.22,50c1.85.82,5,1.63,7,1.1,1.5-.39,2.19-.81.26-1.67Z"/><path class="cls-1" d="M39.25,129.69c13.75,16,27.23,32.2,41.67,47.54.42.44,3.61,3.7,4.34,2.76s-2.14-3.92-2.61-4.43C68.81,160.87,55.93,145.28,42.77,130c-.63-.72-3.73-4.43-4.88-3.84s.83,2.91,1.36,3.54Z"/><path class="cls-1" d="M84.29,180.79a6.49,6.49,0,0,0,5.09-3c.3-.48-.19-1.27-.4-1.64a14.59,14.59,0,0,0-2.21-2.79c-.33-.34-3.75-3.7-4.33-2.76a5.79,5.79,0,0,1-4.38,2.81c-1.48.13,1.06,3.19,1.36,3.54a18,18,0,0,0,2.76,2.69c.53.4,1.41,1.21,2.11,1.15Z"/><path class="cls-1" d="M89.07,173.17l-1.8,2.31.62-.36a20,20,0,0,0,1.87-.78A26.15,26.15,0,0,0,92.67,173c2.17-1.22,3.83-3.27,6.18-4.17,1.84-.71,3.24-2.94,4.21-4.56.19-.31,2-4.17.8-3.7-3.5,1.34-6,4.19-9.45,5.61A17.4,17.4,0,0,0,85.65,174c-.38.65-2.21,3.45-.79,3.71s3.76-3.8,4.21-4.56Z"/><path class="cls-1" d="M82.85,182.26c2.36,0,6.23-8.27,5-8.27-2.35,0-6.22,8.27-5,8.27Z"/><path class="cls-1" d="M82.09,181.5c2.36,0,6.22-8.27,5-8.27-2.36,0-6.22,8.27-5,8.27Z"/><path class="cls-1" d="M84.76,180.74c2.36,0,6.22-8.27,5-8.27-2.36,0-6.22,8.27-5,8.27Z"/><path class="cls-1" d="M90.51,172.91a14.64,14.64,0,0,1-6.82-3.49c-.89-.79-3.5,2.89-3.85,3.41a14.76,14.76,0,0,0-1.74,3.1c-.16.42-.57,1.31-.15,1.68a14.6,14.6,0,0,0,6.82,3.49c1.44.31,3.19-2.43,3.85-3.4.22-.32,2.86-4.58,1.89-4.79Z"/><path class="cls-1" d="M79.39,168.69C68.57,158,55.62,147.51,47.54,134.46c-1.07-1.73-1.48-.94-1.61.55-.17,2.05,1.25,5,2.3,6.69,8.42,13.6,21.56,24.37,32.83,35.55,1.49,1.48,1.07-1.52,1-2.23-.29-1.94-1.18-4.88-2.64-6.33Z"/><path class="cls-1" d="M70.58,78.29c2.27,2,4.89,3.71,8,3.84,1,.05-1-2.26-1.13-2.4-.84-.85-2.27-2.39-3.59-2.44A6.83,6.83,0,0,1,72,77c-.51-.17-.94-.51-.29.06-.45-.39-2.49-2.34-3.17-1.72s1.83,2.78,2,3Z"/><path class="cls-1" d="M80.1,80.22c.27,0,.52-.8.61-.8-.27,0-.51.8-.61.8Z"/><path class="cls-1" d="M80.66,80.09c-.15.33-1,.47-1.3.48a2,2,0,0,1-1.24-.39c-.1-.06-.69.74-.61.8,1.47,1,3.08-.16,3.73-1.53.09-.19-.17.06-.19.08a2.17,2.17,0,0,0-.39.56Z"/><path class="cls-1" d="M81.08,78.67a3.47,3.47,0,0,1-4.36.23c-.1-.07-.69.73-.6.8a3.6,3.6,0,0,0,4.61-.41c.11-.1.64-.9.35-.62Z"/><path class="cls-1" d="M81.6,79.14l-3.44,1.28c-.17.06-.32.32-.41.46s-.22.36-.14.33l3.45-1.27c.16-.06.31-.32.41-.46s.21-.36.13-.34Z"/><path class="cls-1" d="M81.24,79.45a1.5,1.5,0,0,1-1.69-.14c-.26-.2-2.08,2.19-1.81,2.39a1.69,1.69,0,0,0,1.85.14,4.21,4.21,0,0,0,1.24-1.38,3.63,3.63,0,0,0,.46-.78c0-.05.11-.32-.05-.23Z"/><path class="cls-1" d="M82,78.85a23.62,23.62,0,0,1-4.43.61c-.4,0-.86.77-1.08,1.06a12.24,12.24,0,0,0-.72,1.33,23.58,23.58,0,0,0,4.58-.62c.48-.12,1-1,1.24-1.38.08-.12.66-1.06.41-1Z"/><path class="cls-1" d="M101.87,109a15.61,15.61,0,0,1-10.26-5.22,11.67,11.67,0,0,1-2.92-5.92c-.48-3.23,1.21-6.07,2.5-9,.27-.61-1,.71-1,.83-2.44,3.35-3,6.57-3.13,10.72l1.84-2.24-.17-1.73c0,.1-1.9,1.48-1.83,2.23l.16,1.74c0-.07,1.82-1.53,1.84-2.24,0-1.15.78-4.06.4-5-.83-2.1-1.3.89-1.64,1.77a9.33,9.33,0,0,0-.23,7.29c2.09,5.26,7.2,8.53,12.68,9.14.74.09,1.64-2.41,1.81-2.39Z"/><path class="cls-1" d="M90.94,102.33c-4.33-4.83.59-8.07.67-12.76S89.43,81,91,76.14c3.16-9.91,14.18-15.55,24-15s23,4.11,22.6,16.2c-.2,5.6-2.32,10-4.89,14.84-2.16,4.08-4,8.61-7.57,11.66-1.23,1,1,6.5,2.49,5.26,5-4.26,8.3-12.26,10.89-18.22,2.22-5.1,3.09-12.1,1.63-17.54-3.51-13.13-16.67-18-28.93-18s-24.08,10.31-23.87,23c0,2.53,1.19,5.18,1.15,7.62,0,2.83-2.25,5.51-2.36,8.51a17.89,17.89,0,0,0,4.64,12.42c2.07,2.31,1.26-3.41.23-4.57Z"/><path class="cls-1" d="M127.73,109.54c9.72,4.68,3.31,23-.65,29.61-.93,1.56-1.06,6.86.92,3.56a50.68,50.68,0,0,0,7.22-21.33c.55-6,.9-14.43-5.44-17.48-1.41-.68-3.69,4.85-2,5.64Z"/><path class="cls-1" d="M96.09,109c-8.29,4.08-15.61,5.85-24.66,3.21a18,18,0,0,1-4.64-1.75c-1.78-1.14-2.64-2.5-4.55-3.3-2.07-.88-2.88-.71-5-2.45-1.82-1.55-3.48-3.37-5.2-5-1.32-1.27-3.79,4-2.58,5.22,3,2.9,5.57,5.88,9.36,7.59s6.48,4.18,10.51,5.35c9.24,2.71,16.79,1,25.33-3.19,1.63-.8,2.54-6.22,1.38-5.65Z"/><path class="cls-1" d="M47.47,107.49c-.38,13.34,13,22.61,24.43,26.66,1.6.57,3.65-5.07,2-5.63-10.32-3.66-23.78-12.24-23.43-24.44.09-3-3,1.89-3.05,3.41Z"/><path class="cls-1" d="M93.32,132.55c-2.95,0-6,.44-9,.31-3.73-.15-7.59-1.79-11.15-2.79-1.46-.41-5,2.56-3.91,2.87,3.43,1,7.15,2.54,10.68,3,3.21.42,6.85-.31,10.12-.34,1.31,0,4.94-3.05,3.23-3Z"/><path class="cls-1" d="M28.88,46.75a24.55,24.55,0,0,0-.57,13.75c1.1,5,2.45,10.72,6.31,14.36,1.1,1,3-3.44,2-4.42-5.06-4.77-8.11-16.6-5.83-23.08,1-2.78-.92-3.41-1.91-.61Z"/><path class="cls-1" d="M143.58,115.89c6.7,10.92,2.47,21.64-2.09,32.48-4.08,9.71-8.92,19.17-15.32,27.57a93.42,93.42,0,0,1-44.73,31.7c-1.41.48-2.22,5.17-1,4.75a97.35,97.35,0,0,0,51.31-40.34,162.3,162.3,0,0,0,14.94-31.44c3.63-9.94,4.61-19.79-1.13-29.15-.62-1-2.8,3.12-2,4.43Z"/><path class="cls-1" d="M45.24,100.17c1.64,0,2.61-4.76,1.55-4.76-1.64,0-2.61,4.76-1.55,4.76Z"/><path class="cls-1" d="M80.39,208.43C63.92,205.27,50.61,195,39.28,183.11,28.14,171.42,17,158.76,10.2,144c-3.31-7.26-7.56-16.06-7.68-24.16-.19-12.43,11.74-13,20.86-11.84,5.89.78,15.67,3.13,20-2.56,3.35-4.46,3.57-11.37,2.79-16.61-.38-2.58-2.63,1.63-2.44,2.93.66,4.38,1.25,9.58-4,11.88-2.62,1.17-6.38.63-9.1.37-4-.39-7.9-1.27-11.91-1.32-5.74-.08-11.3,1.44-14.83,6.27-8.64,11.8-.9,28.21,4.41,39.65,6.94,15,18.25,27.8,29.6,39.61s24.63,21.88,41,25c1.5.29,2.83-4.51,1.55-4.76Z"/><path class="cls-1" d="M43.27,84.5C43,96.68,54,103.87,62.62,110.31c1,.71-.67-3.39-1.6-4.08-6.4-4.77-15.09-9.28-14.9-18.41,0-1.12-2.82-4.71-2.85-3.32Z"/><path class="cls-1" d="M144.53,115.8c.83-1.69-.78-4-1.82-5.23s-3-2.09-3.54-3.73a6.72,6.72,0,0,0-1.83-3c-.61-.52-1.19-.44-.87.53a18.38,18.38,0,0,0,2.81,5.46,14.55,14.55,0,0,0,1.86,2.06,6.93,6.93,0,0,0,1.08.88l.41.33c-.29-1.69-.6-2.09-.92-1.21-.54,1.11,2.42,4.75,2.82,3.94Z"/><path class="cls-1" d="M144,111.24a10.21,10.21,0,0,1-3.38-2.63c-.25-.32-1.22-1.73-1.67-1s.83,2.47,1.15,2.89a16.73,16.73,0,0,0,5.5,4.85c.92.48.56-.84.39-1.28a5.64,5.64,0,0,0-2-2.8Z"/></g></g></svg>